<?xml version="1.0" encoding="UTF-8"?>
<svg width="36px" height="50px" viewBox="0 0 36 50" version="1.1" xmlns="http://www.w3.org/2000/svg" xmlns:xlink="http://www.w3.org/1999/xlink">
    <title>编组 2备份 2</title>
    <defs>
        <linearGradient x1="71.9732645%" y1="137.029898%" x2="53.2210576%" y2="50%" id="linearGradient-1">
            <stop stop-color="#378AF0" offset="0%"></stop>
            <stop stop-color="#C8B2FF" offset="100%"></stop>
        </linearGradient>
        <linearGradient x1="-6.86695249%" y1="50.4798547%" x2="107.193152%" y2="48.9147857%" id="linearGradient-2">
            <stop stop-color="#9CD2FC" offset="0%"></stop>
            <stop stop-color="#C5B3FF" offset="100%"></stop>
        </linearGradient>
        <linearGradient x1="13.5911078%" y1="68.2830526%" x2="86.6177403%" y2="8.65200496%" id="linearGradient-3">
            <stop stop-color="#9CD2FC" offset="0%"></stop>
            <stop stop-color="#C5B3FF" offset="100%"></stop>
        </linearGradient>
    </defs>
    <g id="页面-3" stroke="none" stroke-width="1" fill="none" fill-rule="evenodd">
        <g id="我的金币-兑换" transform="translate(-53.000000, -290.000000)" stroke="#000000">
            <g id="编组-4" transform="translate(16.000000, 275.000000)">
                <g id="编组-2备份-2" transform="translate(38.000000, 16.000000)">
                    <rect id="矩形" stroke-width="1.71428571" fill="url(#linearGradient-1)" stroke-linejoin="round" x="0" y="5.50819672" width="34" height="42.4918033"></rect>
                    <polygon id="矩形备份-2" stroke-width="1.71428571" fill="url(#linearGradient-2)" stroke-linejoin="round" transform="translate(17.000000, 2.754098) scale(1, -1) translate(-17.000000, -2.754098) " points="0 0 34 0 30.1797753 5.50819672 3.82022472 5.50819672"></polygon>
                    <rect id="矩形备份" stroke-width="1.71428571" fill="url(#linearGradient-3)" x="3.77777778" y="9.44262295" width="26.4444444" height="33.0491803"></rect>
                    <g id="问号" transform="translate(10.000000, 16.000000)" fill="#F7FFFE" fill-rule="nonzero" stroke-width="0.944262295">
                        <path d="M9.50976923,15.6862974 L9.50976923,20.4721311 L4.56607578,20.4721311 L4.56607578,15.6862974 L9.50976923,15.6862974 Z" id="路径"></path>
                        <path d="M9.10749221,-0.472131036 C10.3323751,-0.471287634 11.3810165,-0.173087431 12.2156396,0.318874714 C13.1414468,0.864584647 13.8072903,1.64966927 14.1663782,2.54852435 C14.5251814,3.44666691 14.5790855,4.46057093 14.2713239,5.47099433 C13.9951365,6.37775541 13.4257218,7.28481187 12.5117985,8.09536568 L12.5117985,8.09536568 L10.5031028,9.86500068 C9.83108844,10.4624633 9.50976923,11.3378999 9.50976923,12.3393978 L9.50976923,12.3393978 L9.50976923,14.5503794 L4.56607578,14.5503794 L4.56607578,11.8724843 C4.56607578,9.28763536 5.61002827,7.62253113 7.77719757,5.99770575 C8.16913237,5.69759665 8.43225887,5.33403947 8.57633707,4.95013463 C8.730216,4.54011521 8.74819109,4.10858897 8.64779453,3.71562571 C8.54821879,3.3258752 8.33199618,2.97368925 8.01504405,2.72300238 C7.72557969,2.49405641 7.35308285,2.3522373 6.91515141,2.33688647 C6.31483763,2.36480646 5.84223715,2.61183089 5.52333498,3.07976761 C5.10723974,3.69031926 4.94201061,4.62799743 5.00246885,5.8496871 L5.00246885,5.8496871 L-0.441767569,5.8496871 C-0.606733306,4.17121145 -0.0976030152,2.40374731 1.043673,1.16883694 C1.95395307,0.183874258 3.26486222,-0.472131148 4.97170089,-0.472131148 L4.97170089,-0.472131148 Z" id="路径"></path>
                    </g>
                    <line x1="0" y1="5.50819672" x2="3.77777778" y2="9.24590164" id="路径-2" stroke-width="1.35831371"></line>
                    <line x1="30.1797753" y1="5.50819672" x2="33.9575531" y2="9.24590164" id="路径-2备份" stroke-width="1.35831371" transform="translate(32.068664, 7.377049) scale(-1, 1) translate(-32.068664, -7.377049) "></line>
                    <line x1="30.2222222" y1="42.4918033" x2="33.9575531" y2="48" id="路径-5" stroke-width="1.35831371"></line>
                    <line x1="3.77777778" y1="42.4918033" x2="1.0014184e-16" y2="48" id="路径-6" stroke-width="1.35831371"></line>
                </g>
            </g>
        </g>
    </g>
</svg>