<?xml version="1.0" encoding="UTF-8"?>
<svg width="60px" height="50px" viewBox="0 0 60 50" version="1.1" xmlns="http://www.w3.org/2000/svg" xmlns:xlink="http://www.w3.org/1999/xlink">
    <title>编组 2备份 2</title>
    <defs>
        <linearGradient x1="65.319676%" y1="45.7908154%" x2="60.6585074%" y2="51.7207846%" id="linearGradient-1">
            <stop stop-color="#378AF0" offset="0%"></stop>
            <stop stop-color="#C8B2FF" offset="100%"></stop>
        </linearGradient>
        <linearGradient x1="100%" y1="30.5875362%" x2="5.27273747%" y2="30.5875362%" id="linearGradient-2">
            <stop stop-color="#9CD2FC" offset="0%"></stop>
            <stop stop-color="#C5B3FF" offset="100%"></stop>
        </linearGradient>
        <linearGradient x1="30.6880568%" y1="68.2830526%" x2="69.4227201%" y2="8.65200496%" id="linearGradient-3">
            <stop stop-color="#9CD2FC" offset="0%"></stop>
            <stop stop-color="#C5B3FF" offset="100%"></stop>
        </linearGradient>
        <linearGradient x1="84.3199837%" y1="56.6611802%" x2="55.0309614%" y2="50%" id="linearGradient-4">
            <stop stop-color="#378AF0" offset="0%"></stop>
            <stop stop-color="#C8B2FF" offset="100%"></stop>
        </linearGradient>
    </defs>
    <g id="页面-3" stroke="none" stroke-width="1" fill="none" fill-rule="evenodd">
        <g id="我的金币-兑换" transform="translate(-272.000000, -441.000000)">
            <g id="编组-4备份-5" transform="translate(248.000000, 425.000000)">
                <g id="编组-2备份-2" transform="translate(27.000000, 17.000000)">
                    <g id="image_Wu_180x120" stroke="#000000" stroke-width="1.60813101">
                        <polygon id="路径-14" fill="#A0ACF6" points="1.39452193e-14 44.2165384 27.9378698 48 35.9117874 43.2165384 6.88301261 40.004514"></polygon>
                        <polygon id="路径-14备份" fill="#4463CD" points="6.97391755 11.2000192 35.9117874 8.7451889 35.9117874 43.2165384 6.88301261 40.004514"></polygon>
                        <polygon id="路径-14备份-5" fill="url(#linearGradient-1)" stroke-linejoin="round" points="26.5037832 35.7218147 35.9117874 35.7218147 35.9117874 43.2165384 6.88301261 40.004514"></polygon>
                        <polygon id="路径-14备份-4" fill="url(#linearGradient-2)" points="6.97391755 11.2000192 26.5037832 16.7510475 26.5037832 35.7218147 6.88301261 40.004514"></polygon>
                        <polygon id="路径-14备份-3" fill="url(#linearGradient-3)" transform="translate(45.955894, 25.980864) scale(-1, 1) translate(-45.955894, -25.980864) " points="35.9865959 15.4883686 56 8.7451889 56 43.2165384 35.9117874 36.7882519"></polygon>
                        <polygon id="路径-14备份-2" fill="#A0ACF6" points="6.97391755 11.2000192 35.9117874 8.7451889 38.2237628 -2.29408588e-14 8.75958632 4.6509238"></polygon>
                        <polygon id="路径-14备份-6" fill="url(#linearGradient-4)" stroke-linejoin="round" points="6.97391755 11.2000192 35.9117874 8.7451889 35.9117874 16.2150038 26.5037832 16.7510475"></polygon>
                    </g>
                    <g id="消息" transform="translate(11.000000, 17.000000)" stroke-width="1.125">
                        <path d="M18.3258914,14.9097037 C18.6981913,14.9097037 19,14.6257447 19,14.2754635 C19,13.9251824 18.6981913,13.6412234 18.3258914,13.6412234 L17.3602243,13.6412234 L17.3602243,8.73166869 C17.3600717,5.95084738 15.357764,3.52334529 12.4946857,2.83292221 C12.5711442,2.24895057 12.282964,1.67582988 11.7545996,1.36106995 C11.2262353,1.04631002 10.5523599,1.04631002 10.0239955,1.36106995 C9.49563118,1.67582988 9.207451,2.24895057 9.28390946,2.83292221 C6.42179031,3.52421997 4.42065656,5.9515042 4.42078689,8.73166869 L4.42078689,13.6412234 L3.61686664,13.6412234 C3.24457176,13.6412234 2.94276712,13.9251785 2.94276712,14.275455 C2.94276712,14.6257315 3.24457176,14.9097037 3.61686664,14.9097037 L6.3375522,14.9097037 L6.3375522,14.9074135 L16.1422547,14.9074135 L16.1422547,14.9097037 L18.3258914,14.9097037 Z" id="形状" stroke="#000000" fill="#FFFFFF"></path>
                        <path d="M13.8788901,14.9441145 L13.8788901,16.0630223 C13.7797105,16.7890773 13.4014568,17.4238894 12.8504462,17.8729528 C12.3221921,18.3034699 11.6348362,18.5625 10.8900969,18.5625 C10.1453575,18.5625 9.45800167,18.3034699 8.9297476,17.8729528 C8.37873696,17.4238894 8.00048323,16.7890773 7.90130363,16.0630223 L7.90130363,16.0630223 L7.90130363,14.9441145 L13.8788901,14.9441145 Z" id="路径" stroke="#000000" fill="#FFFFFF" stroke-linejoin="round"></path>
                        <path d="M4.89145867,2.21261538 C3.54209033,3.11681562 2.73971141,4.2950456 2.48432193,5.74730532" id="路径-16" stroke="#000000" fill="#FFFFFF" stroke-linecap="round"></path>
                        <path d="M4.08971232,0 C1.96815411,1.12943086 0.604916665,3.0451993 0,5.74730532" id="路径-17" stroke="#222222" stroke-linecap="round"></path>
                    </g>
                </g>
            </g>
        </g>
    </g>
</svg>