<?xml version="1.0" encoding="UTF-8"?>
<svg width="56px" height="56px" viewBox="0 0 56 56" version="1.1" xmlns="http://www.w3.org/2000/svg" xmlns:xlink="http://www.w3.org/1999/xlink">
    <title>icon_Jubao_56x56</title>
    <g id="页面-3" stroke="none" stroke-width="1" fill="none" fill-rule="evenodd">
        <g id="举报" transform="translate(-284.000000, -469.000000)">
            <g id="编组-12" transform="translate(34.000000, 469.000000)">
                <g id="icon_Jubao_56x56" transform="translate(250.000000, 0.000000)">
                    <path d="M2.5638852,4.63187306e-16 L53.4361148,1.03584031e-16 C54.3276335,-6.01853049e-17 54.6509198,0.0928256111 54.9768457,0.267132704 C55.3027716,0.441439796 55.5585602,0.697228371 55.7328673,1.0231543 C55.9071744,1.34908022 56,1.67236646 56,2.5638852 L56,53.4361148 C56,54.3276335 55.9071744,54.6509198 55.7328673,54.9768457 C55.5585602,55.3027716 55.3027716,55.5585602 54.9768457,55.7328673 C54.6509198,55.9071744 54.3276335,56 53.4361148,56 L2.5638852,56 C1.67236646,56 1.34908022,55.9071744 1.0231543,55.7328673 C0.697228371,55.5585602 0.441439796,55.3027716 0.267132704,54.9768457 C0.0928256111,54.6509198 -2.89186932e-16,54.3276335 4.97715317e-16,53.4361148 L6.90560205e-17,2.5638852 C-4.01235366e-17,1.67236646 0.0928256111,1.34908022 0.267132704,1.0231543 C0.441439796,0.697228371 0.697228371,0.441439796 1.0231543,0.267132704 C1.34908022,0.0928256111 1.67236646,-2.69125164e-16 2.5638852,4.63187306e-16 Z" id="矩形备份-6" fill="#F5F7F9"></path>
                    <path d="M39,20.5025424 C36.4227273,20.0131356 28.4045454,16 28.4045454,16 C28.4045454,16 21.5318182,19.8173729 18,20.5025424 C18,32.8355932 23.25,35.5762712 28.5,39.1 C34.7045455,35.5762712 39,30.1927966 39,20.5025424 Z M28.5,36.359322 C23.6318182,33.8144068 20.1954545,29.1161017 20.2909091,22.1665254 C23.9181818,21.5792373 28.5,18.740678 28.5,18.740678 C28.5,18.740678 33.1772727,21.6771186 36.6136364,22.1665254 C36.7090909,29.5076271 32.7954545,33.8144068 28.5,36.359322 Z M27.5454545,29.9970339 L27.5454545,31.954661 L29.4545455,31.954661 L29.4545455,29.9970339 L27.5454545,29.9970339 Z M27.5454545,27.4521186 L27.5454545,28.0394068 L29.4545455,28.0394068 L29.4545455,22.8516949 L29.4545455,22.1665254 L27.5454545,22.1665254 L27.5454545,27.4521186 Z" id="形状" fill="#222222" fill-rule="nonzero"></path>
                </g>
            </g>
        </g>
    </g>
</svg>