<?xml version="1.0" encoding="UTF-8"?>
<svg width="56px" height="56px" viewBox="0 0 56 56" version="1.1" xmlns="http://www.w3.org/2000/svg" xmlns:xlink="http://www.w3.org/1999/xlink">
    <title>icon_Siliao_56x56</title>
    <g id="页面-3" stroke="none" stroke-width="1" fill="none" fill-rule="evenodd">
        <g id="举报" transform="translate(-34.000000, -469.000000)">
            <g id="icon_Siliao_56x56" transform="translate(34.000000, 469.000000)">
                <path d="M2.5638852,4.63187306e-16 L53.4361148,1.03584031e-16 C54.3276335,-6.01853049e-17 54.6509198,0.0928256111 54.9768457,0.267132704 C55.3027716,0.441439796 55.5585602,0.697228371 55.7328673,1.0231543 C55.9071744,1.34908022 56,1.67236646 56,2.5638852 L56,53.4361148 C56,54.3276335 55.9071744,54.6509198 55.7328673,54.9768457 C55.5585602,55.3027716 55.3027716,55.5585602 54.9768457,55.7328673 C54.6509198,55.9071744 54.3276335,56 53.4361148,56 L2.5638852,56 C1.67236646,56 1.34908022,55.9071744 1.0231543,55.7328673 C0.697228371,55.5585602 0.441439796,55.3027716 0.267132704,54.9768457 C0.0928256111,54.6509198 -2.89186932e-16,54.3276335 4.97715317e-16,53.4361148 L6.90560205e-17,2.5638852 C-4.01235366e-17,1.67236646 0.0928256111,1.34908022 0.267132704,1.0231543 C0.441439796,0.697228371 0.697228371,0.441439796 1.0231543,0.267132704 C1.34908022,0.0928256111 1.67236646,-2.69125164e-16 2.5638852,4.63187306e-16 Z" id="矩形" fill="#F5F7F9"></path>
                <g id="编组-8" transform="translate(17.000000, 17.000000)">
                    <path d="M20.75,1.25 L20.75,19.6915735 L17.0491556,17.2763158 L1.25,17.2763158 L1.25,1.25 L20.75,1.25 Z" id="矩形" stroke="#222222" stroke-width="2.5"></path>
                    <rect id="矩形" fill="#222222" x="6.11111111" y="9.77777778" width="9.77777778" height="3.05555556"></rect>
                </g>
            </g>
        </g>
    </g>
</svg>