<?xml version="1.0" encoding="UTF-8"?>
<svg width="56px" height="56px" viewBox="0 0 56 56" version="1.1" xmlns="http://www.w3.org/2000/svg" xmlns:xlink="http://www.w3.org/1999/xlink">
    <title>icon_Guanzhu_56x56</title>
    <g id="页面-3" stroke="none" stroke-width="1" fill="none" fill-rule="evenodd">
        <g id="举报" transform="translate(-159.000000, -469.000000)">
            <g id="编组-12" transform="translate(34.000000, 469.000000)">
                <g id="icon_Guanzhu_56x56" transform="translate(125.000000, 0.000000)">
                    <path d="M2.5638852,4.63187306e-16 L53.4361148,1.03584031e-16 C54.3276335,-6.01853049e-17 54.6509198,0.0928256111 54.9768457,0.267132704 C55.3027716,0.441439796 55.5585602,0.697228371 55.7328673,1.0231543 C55.9071744,1.34908022 56,1.67236646 56,2.5638852 L56,53.4361148 C56,54.3276335 55.9071744,54.6509198 55.7328673,54.9768457 C55.5585602,55.3027716 55.3027716,55.5585602 54.9768457,55.7328673 C54.6509198,55.9071744 54.3276335,56 53.4361148,56 L2.5638852,56 C1.67236646,56 1.34908022,55.9071744 1.0231543,55.7328673 C0.697228371,55.5585602 0.441439796,55.3027716 0.267132704,54.9768457 C0.0928256111,54.6509198 -2.89186932e-16,54.3276335 4.97715317e-16,53.4361148 L6.90560205e-17,2.5638852 C-4.01235366e-17,1.67236646 0.0928256111,1.34908022 0.267132704,1.0231543 C0.441439796,0.697228371 0.697228371,0.441439796 1.0231543,0.267132704 C1.34908022,0.0928256111 1.67236646,-2.69125164e-16 2.5638852,4.63187306e-16 Z" id="矩形备份-5" fill="#F5F7F9"></path>
                    <g id="编组" transform="translate(16.000000, 16.000000)" fill="#222222" fill-rule="nonzero">
                        <path d="M12,5.99230839 L13.4465025,9.07423569 L14.033202,10.324472 L15.3455172,10.52492 L18.5799015,11.0190477 L16.2393103,13.4178979 L15.2896552,14.3909255 L15.5136946,15.7651599 L16.0661084,19.1522654 L13.1731034,17.553032 L12,16.9041397 L10.8263054,17.553032 L7.93330049,19.1522654 L8.48571429,15.7651599 L8.70975369,14.3909255 L7.76009852,13.4178979 L5.41950739,11.0190477 L8.65389163,10.52492 L9.9662069,10.324472 L10.5529064,9.07423569 L12,5.99230839 M12,0 L8.29182266,7.90044932 L0,9.16715656 L6,15.3167157 L4.58364532,24 L12,19.9002939 L19.4163547,24 L18,15.3167157 L24,9.16715656 L15.7081773,7.90013855 L12,0 Z" id="形状"></path>
                    </g>
                </g>
            </g>
        </g>
    </g>
</svg>