<?xml version="1.0" encoding="UTF-8"?>
<svg width="28px" height="28px" viewBox="0 0 28 28" version="1.1" xmlns="http://www.w3.org/2000/svg" xmlns:xlink="http://www.w3.org/1999/xlink">
    <title>发送私信</title>
    <g id="页面-3" stroke="none" stroke-width="1" fill="none" fill-rule="evenodd">
        <g id="任务中心" transform="translate(-31.000000, -1032.000000)">
            <g id="编组-3备份" transform="translate(15.000000, 1015.000000)">
                <g id="发送私信" transform="translate(16.000000, 17.000000)">
                    <rect id="矩形" fill="#F5F7F9" x="0" y="0" width="28" height="28" rx="2"></rect>
                    <path d="M22,7 L22,24 L17.428404,20.8032663 L5,20.8032663 L5,7 L22,7 Z M20.4127879,8.61904762 L6.5862721,8.61904762 L6.5862721,19.1841429 L17.9201165,19.1842186 L20.4127879,20.9270476 L20.4127879,8.61904762 Z" id="路径-5" fill="#222222" fill-rule="nonzero"></path>
                    <path d="M15.03125,11 C16.1185606,11 17,11.8466287 17,12.890998 C17,13.5027951 16.6975184,14.046734 16.2283642,14.3923689 L13.5,17 L10.6221032,14.2704358 C10.2392031,13.9254418 10,13.4350511 10,12.890998 C10,11.8466287 10.8814394,11 11.96875,11 C12.5871901,11 13.1390287,11.273893 13.4999573,11.7022797 C13.8609713,11.273893 14.4128099,11 15.03125,11 Z" id="形状" stroke="#222222" stroke-width="1.5"></path>
                </g>
            </g>
        </g>
    </g>
</svg>