<?xml version="1.0" encoding="UTF-8"?>
<svg width="28px" height="28px" viewBox="0 0 28 28" version="1.1" xmlns="http://www.w3.org/2000/svg" xmlns:xlink="http://www.w3.org/1999/xlink">
    <title>发帖</title>
    <g id="页面-3" stroke="none" stroke-width="1" fill="none" fill-rule="evenodd">
        <g id="任务中心" transform="translate(-31.000000, -646.000000)">
            <g id="编组-3" transform="translate(15.000000, 629.000000)">
                <g id="发帖" transform="translate(16.000000, 17.000000)">
                    <rect id="矩形" fill="#F5F7F9" x="0" y="0" width="28" height="28" rx="2"></rect>
                    <g id="完善" transform="translate(6.143445, 3.611258)" fill="#000000" fill-rule="nonzero">
                        <path d="M0,19.3887418 L0,17.8629644 L17.7131107,17.8629644 L17.7131107,19.3887418 L0,19.3887418 Z M1.85503382,16.3664406 C1.64779749,16.364124 1.31385568,16.364124 0.853208385,16.3664406 C0.853198332,15.8611123 0.853198332,15.5281842 0.853208385,15.3676562 L0.853208385,11.3730184 C0.85288398,11.2996985 0.85288398,11.1631195 0.853208385,10.9632812 C0.975019588,10.8390412 1.07257563,10.7403804 1.1458765,10.667299 L11.1528743,0.680704291 C11.2771546,0.556186925 11.5105936,0.329285494 11.8531914,0 C12.2045744,0.329285494 12.4424061,0.556186925 12.5666864,0.680704291 L16.5683599,4.67534217 C16.6971575,4.80471164 16.9235545,5.03709937 17.2475508,5.37250536 C16.9260592,5.71680374 16.6996622,5.95489558 16.5683599,6.08678089 L6.56361333,16.0733756 C6.51380904,16.1236553 6.41766708,16.2213436 6.27518745,16.3664406 C6.10229777,16.3664406 5.96280439,16.3664406 5.85670729,16.3664406 L1.85503382,16.3664406 Z M2.35369525,14.8683265 L5.3557946,14.8683265 L14.860754,5.38106153 L11.8586547,2.38508312 L2.35369525,11.8701288 L2.35369525,14.8661073 L2.35369525,14.8683265 Z" id="形状"></path>
                    </g>
                </g>
            </g>
        </g>
    </g>
</svg>