<?xml version="1.0" encoding="UTF-8"?>
<svg width="28px" height="28px" viewBox="0 0 28 28" version="1.1" xmlns="http://www.w3.org/2000/svg" xmlns:xlink="http://www.w3.org/1999/xlink">
    <title>点赞</title>
    <g id="页面-3" stroke="none" stroke-width="1" fill="none" fill-rule="evenodd">
        <g id="任务中心" transform="translate(-31.000000, -584.000000)">
            <g id="编组-3备份" transform="translate(15.000000, 567.000000)">
                <g id="点赞" transform="translate(16.000000, 17.000000)">
                    <rect id="矩形" fill="#F5F7F9" x="0" y="0" width="28" height="28" rx="2"></rect>
                    <path d="M17.65625,6.8 C18.9107317,6.8 20.0463561,7.30997982 20.8684228,8.1342122 C21.6912503,8.95920736 22.2,10.0989771 22.2,11.3578277 C22.2,12.8506022 21.484499,14.1758543 20.3784971,15.0074933 L20.3784971,15.0074933 L13.4978408,21.8721019 L6.24383436,14.6902219 C5.35530641,13.8581371 4.8,12.6729782 4.8,11.3578277 C4.8,10.0989771 5.30874974,8.95920736 6.13157722,8.1342122 C6.95364392,7.30997982 8.08926833,6.8 9.34375,6.8 C10.7710977,6.8 12.0444348,7.46029047 12.8773598,8.49225016 C13.1282439,8.80308519 13.3377343,9.14586056 13.4998043,9.51112056 C13.6619158,9.14580272 13.8714508,8.80310242 14.12235,8.49232221 C14.9554942,7.46033538 16.2288562,6.8 17.65625,6.8 Z" id="形状" stroke="#222222" stroke-width="1.6"></path>
                </g>
            </g>
        </g>
    </g>
</svg>