<?xml version="1.0" encoding="UTF-8"?>
<svg width="28px" height="28px" viewBox="0 0 28 28" version="1.1" xmlns="http://www.w3.org/2000/svg" xmlns:xlink="http://www.w3.org/1999/xlink">
    <title>关注话题</title>
    <g id="页面-3" stroke="none" stroke-width="1" fill="none" fill-rule="evenodd">
        <g id="任务中心" transform="translate(-31.000000, -908.000000)">
            <g id="编组-3" transform="translate(15.000000, 891.000000)">
                <g id="关注话题" transform="translate(16.000000, 17.000000)">
                    <rect id="矩形" fill="#F5F7F9" x="0" y="0" width="28" height="28" rx="2"></rect>
                    <path d="M17.0764499,12.5821326 L16.6493849,15.2449568 L18.5,15.2449568 L18.5,16.8357349 L16.3804921,16.8357349 L15.8585237,20 L14.1977153,20 L14.7196837,16.8357349 L12.3787346,16.8357349 L11.8567663,20 L10.1959578,20 L10.7179262,16.8357349 L9.5,16.8357349 L9.5,15.2449568 L10.9710018,15.2449568 L11.413884,12.5821326 L9.5,12.5821326 L9.5,10.9913545 L11.6669596,10.9913545 L12.1572935,8 L13.8339192,8 L13.3435852,10.9913545 L15.668717,10.9913545 L16.159051,8 L17.8356766,8 L17.3453427,10.9913545 L18.5,10.9913545 L18.5,12.5821326 L17.0764499,12.5821326 Z M15.4156415,12.5821326 L13.0746924,12.5821326 L12.6476274,15.2449568 L14.9727592,15.2449568 L15.4156415,12.5821326 Z" id="形状" fill="#000000" fill-rule="nonzero"></path>
                    <path d="M8.68,6 L8.68,7.5 L6,7.5 L6,20.5 L8.68,20.5 L8.68,22 L4.5,22 L4.5,6 L8.68,6 Z M23.5,22 L19.5,22 L19.5,20.5 L22,20.5 L22,7.5 L19.5,7.5 L19.5,6 L23.5,6 L23.5,22 Z" id="形状结合" fill="#000000"></path>
                </g>
            </g>
        </g>
    </g>
</svg>