<?xml version="1.0" encoding="UTF-8"?>
<svg width="28px" height="28px" viewBox="0 0 28 28" version="1.1" xmlns="http://www.w3.org/2000/svg" xmlns:xlink="http://www.w3.org/1999/xlink">
    <title>拆盲盒</title>
    <g id="页面-3" stroke="none" stroke-width="1" fill="none" fill-rule="evenodd">
        <g id="任务中心" transform="translate(-31.000000, -336.000000)">
            <g id="编组-3备份-5" transform="translate(15.000000, 319.000000)">
                <g id="拆盲盒" transform="translate(16.000000, 17.000000)">
                    <rect id="矩形" fill="#F5F7F9" x="0" y="0" width="28" height="28" rx="2"></rect>
                    <g id="完善" transform="translate(3.500000, 6.000000)" stroke-width="1.43084802">
                        <g id="box备份">
                            <polygon id="路径-18" stroke="#000000" fill="#F5F7F9" points="3.02707347 4.47247746 3.02707347 13.3620146 10.343912 17 17.8153052 12.7166096 17.8153052 4.47247746 10.4211893 7.33126185"></polygon>
                            <line x1="10.343912" y1="7.33126185" x2="10.343912" y2="17" id="路径-19" stroke="#000000" fill="#D8D8D8"></line>
                            <path d="M7.62222302,0.0316429564 L20.5946195,5.6726808 C20.691244,5.7146979 20.735512,5.82708911 20.6934949,5.9237136 C20.6740932,5.96833067 20.6383783,6.00384946 20.5936551,6.02300523 L13.8304668,8.91980299 C13.7822678,8.94044752 13.7276966,8.94034439 13.6795759,8.91951784 L0.421981243,3.18165036 C0.325284377,3.1398001 0.280822419,3.02748546 0.322672681,2.9307886 C0.342738578,2.88442546 0.380374416,2.84791395 0.427324631,2.829263 L7.47571113,0.0292948711 C7.52291392,0.010543585 7.57564536,0.0113886898 7.62222302,0.0316429564 Z" id="矩形备份-7" stroke="#979797" fill="#F5F7F9" transform="translate(10.500000, 4.476072) scale(-1, 1) translate(-10.500000, -4.476072) "></path>
                            <polygon id="矩形" stroke="#000000" fill="#F5F7F9" points="7.17964072 0.0351486036 21 5.59452144 13.8203593 8.63272644 -4.32128055e-13 3.0733536"></polygon>
                            <polygon id="矩形备份-6" stroke="#000000" transform="translate(10.500000, 4.476072) scale(-1, 1) translate(-10.500000, -4.476072) " points="7.54945539 7.93556647e-14 21 5.84896025 13.75496 8.95214396 1.45852253e-13 2.9990175"></polygon>
                        </g>
                    </g>
                </g>
            </g>
        </g>
    </g>
</svg>