<?xml version="1.0" encoding="UTF-8"?>
<svg width="74px" height="76px" viewBox="0 0 74 76" version="1.1" xmlns="http://www.w3.org/2000/svg" xmlns:xlink="http://www.w3.org/1999/xlink">
    <title>解锁功能</title>
    <defs>
        <path d="M0,10 L32,0 L64,10 C64,25.9353148 64,39.9353148 64,52 C64,58.0376749 53.3333333,66.0376749 32,76 C10.6666667,65.9749901 0,57.9749901 0,52 C0,41.2524531 0,27.2524531 0,10 Z" id="path-1"></path>
        <path d="M0,10 L32,0 L64,10 C64,25.9353148 64,39.9353148 64,52 C64,58.0376749 53.3333333,66.0376749 32,76 C10.6666667,65.9749901 0,57.9749901 0,52 C0,41.2524531 0,27.2524531 0,10 Z" id="path-3"></path>
    </defs>
    <g id="页面-3" stroke="none" stroke-width="1" fill="none" fill-rule="evenodd">
        <g id="任务中心" transform="translate(-267.000000, -1182.000000)">
            <g id="解锁功能" transform="translate(267.000000, 1182.000000)">
                <g id="路径-20-+-路径-20备份-蒙版备份" transform="translate(4.000000, 0.000000)">
                    <mask id="mask-2" fill="white">
                        <use xlink:href="#path-1"></use>
                    </mask>
                    <path stroke="#000000" stroke-width="2" d="M32,1.04769091 L63,10.7351909 L63,52 C63,54.828928 60.3280747,58.0322002 55.4,61.7282562 C50.1776103,65.6450485 42.3761807,70.0307489 32.0002365,74.8948032 C21.6249788,69.9997633 13.8228771,65.5984004 8.6,61.6812426 C3.67374308,57.9865499 1,54.7991395 1,52 L1,52 L1,10.7351909 L32,1.04769091 Z"></path>
                    <polygon id="路径-20" fill="#AFF40E" mask="url(#mask-2)" points="-4 7.42587875 52 37.5 67.6062082 -3.04396544 3 -3.04396544"></polygon>
                    <polygon id="路径-20备份" fill="#C1FF31" mask="url(#mask-2)" transform="translate(31.803104, 36.228017) scale(-1, -1) translate(-31.803104, -36.228017) " points="-4 26.4258787 52 56.5 67.6062082 15.9560346 3 15.9560346"></polygon>
                    <mask id="mask-4" fill="white">
                        <use xlink:href="#path-3"></use>
                    </mask>
                    <path stroke="#000000" stroke-width="2" d="M32,1.04769091 L63,10.7351909 L63,52 C63,54.828928 60.3280747,58.0322002 55.4,61.7282562 C50.1776103,65.6450485 42.3761807,70.0307489 32.0002365,74.8948032 C21.6249788,69.9997633 13.8228771,65.5984004 8.6,61.6812426 C3.67374308,57.9865499 1,54.7991395 1,52 L1,52 L1,10.7351909 L32,1.04769091 Z"></path>
                </g>
                <path d="M72.2338096,53 L66.8338096,62 L72.2338096,71 L1.76619038,71 L7.16619038,62 L1.76619038,53 L72.2338096,53 Z" id="矩形备份-7" stroke="#000000" stroke-width="2" fill="#95E600"></path>
                <text font-family="YouSheBiaoTiHei" font-size="12" font-weight="normal" fill="#000000">
                    <tspan x="15" y="66">解锁功能</tspan>
                </text>
                <path d="M36,30 C36.8695945,30 39.5362612,30 44,30 C44,26.7425908 44,24.0759241 44,22 C44,17.581722 40.418278,14 36,14 C31.581722,14 28,17.581722 28,22 C28,23.3363219 28,26.0029886 28,30 C31.7241366,30 34.3908032,30 36,30 Z" id="椭圆形" stroke="#000000" fill="#AFF40E"></path>
                <rect id="矩形" stroke="#000000" fill="#FFFFFF" x="22" y="24" width="28" height="22"></rect>
                <path d="M36,31 C37.6568542,31 39,32.3431458 39,34 C39,35.3058822 38.1656226,36.4168852 37.0009007,36.8289758 L37,41 L35,41 L35.0000889,36.8293257 C33.8348501,36.4175144 33,35.3062521 33,34 C33,32.3431458 34.3431458,31 36,31 Z" id="形状结合" stroke="#000000" fill="#FF8B49"></path>
            </g>
        </g>
    </g>
</svg>