<?xml version="1.0" encoding="UTF-8"?>
<svg width="74px" height="76px" viewBox="0 0 74 76" version="1.1" xmlns="http://www.w3.org/2000/svg" xmlns:xlink="http://www.w3.org/1999/xlink">
    <title>等级提升</title>
    <defs>
        <path d="M0,10 L32,0 L64,10 C64,25.9353148 64,39.9353148 64,52 C64,58.0376749 53.3333333,66.0376749 32,76 C10.6666667,65.9749901 0,57.9749901 0,52 C0,41.2524531 0,27.2524531 0,10 Z" id="path-1"></path>
        <path d="M0,10 L32,0 L64,10 C64,25.9353148 64,39.9353148 64,52 C64,58.0376749 53.3333333,66.0376749 32,76 C10.6666667,65.9749901 0,57.9749901 0,52 C0,41.2524531 0,27.2524531 0,10 Z" id="path-3"></path>
    </defs>
    <g id="页面-3" stroke="none" stroke-width="1" fill="none" fill-rule="evenodd">
        <g id="任务中心" transform="translate(-34.000000, -1182.000000)">
            <g id="等级提升" transform="translate(34.000000, 1182.000000)">
                <circle id="椭圆形" fill="#FFAF00" cx="37" cy="32" r="30"></circle>
                <g id="路径-20-+-路径-20备份-蒙版" transform="translate(4.000000, 0.000000)">
                    <mask id="mask-2" fill="white">
                        <use xlink:href="#path-1"></use>
                    </mask>
                    <path stroke="#000000" stroke-width="2" d="M32,1.04769091 L63,10.7351909 L63,52 C63,54.828928 60.3280747,58.0322002 55.4,61.7282562 C50.1776103,65.6450485 42.3761807,70.0307489 32.0002365,74.8948032 C21.6249788,69.9997633 13.8228771,65.5984004 8.6,61.6812426 C3.67374308,57.9865499 1,54.7991395 1,52 L1,52 L1,10.7351909 L32,1.04769091 Z"></path>
                    <polygon id="路径-20" fill="#FFAF00" mask="url(#mask-2)" points="-4 7.42587875 52 37.5 67.6062082 -3.04396544 3 -3.04396544"></polygon>
                    <polygon id="路径-20备份" fill="#FFCC00" mask="url(#mask-2)" transform="translate(31.803104, 36.228017) scale(-1, -1) translate(-31.803104, -36.228017) " points="-4 26.4258787 52 56.5 67.6062082 15.9560346 3 15.9560346"></polygon>
                    <mask id="mask-4" fill="white">
                        <use xlink:href="#path-3"></use>
                    </mask>
                    <path stroke="#000000" stroke-width="2" d="M32,1.04769091 L63,10.7351909 L63,52 C63,54.828928 60.3280747,58.0322002 55.4,61.7282562 C50.1776103,65.6450485 42.3761807,70.0307489 32.0002365,74.8948032 C21.6249788,69.9997633 13.8228771,65.5984004 8.6,61.6812426 C3.67374308,57.9865499 1,54.7991395 1,52 L1,52 L1,10.7351909 L32,1.04769091 Z"></path>
                </g>
                <path d="M72.2338096,53 L66.8338096,62 L72.2338096,71 L1.76619038,71 L7.16619038,62 L1.76619038,53 L72.2338096,53 Z" id="矩形" stroke="#000000" stroke-width="2" fill="#FFAF00"></path>
                <rect id="矩形" stroke="#000000" fill="#FFFFFF" x="21" y="16" width="30" height="4"></rect>
                <polygon id="矩形备份-3" stroke="#000000" fill="#FFFFFF" points="23 20 49 20 49 49 36 43 23 49"></polygon>
                <path d="M16,24 L21,19 L26,24 L23,24 L23,29 L19,29 L19,24 L16,24 Z" id="形状结合" stroke="#000000" fill="#7AE24F"></path>
                <path d="M46,40 L51,35 L56,40 L53,40 L53,45 L49,45 L49,40 L46,40 Z" id="形状结合备份" stroke="#000000" fill="#7AE24F"></path>
                <polygon id="星形" stroke="#000000" fill="#FFEB38" points="36 36 31.297718 38.472136 32.1957739 33.236068 28.3915479 29.527864 33.648859 28.763932 36 24 38.351141 28.763932 43.6084521 29.527864 39.8042261 33.236068 40.702282 38.472136"></polygon>
                <text font-family="YouSheBiaoTiHei" font-size="12" font-weight="normal" fill="#000000">
                    <tspan x="15" y="66">等级提升</tspan>
                </text>
            </g>
        </g>
    </g>
</svg>