<?xml version="1.0" encoding="UTF-8"?>
<svg width="74px" height="76px" viewBox="0 0 74 76" version="1.1" xmlns="http://www.w3.org/2000/svg" xmlns:xlink="http://www.w3.org/1999/xlink">
    <title>兑换特权</title>
    <defs>
        <path d="M0,10 L32,0 L64,10 C64,25.9353148 64,39.9353148 64,52 C64,58.0376749 53.3333333,66.0376749 32,76 C10.6666667,65.9749901 0,57.9749901 0,52 C0,41.2524531 0,27.2524531 0,10 Z" id="path-1"></path>
        <path d="M0,10 L32,0 L64,10 C64,25.9353148 64,39.9353148 64,52 C64,58.0376749 53.3333333,66.0376749 32,76 C10.6666667,65.9749901 0,57.9749901 0,52 C0,41.2524531 0,27.2524531 0,10 Z" id="path-3"></path>
    </defs>
    <g id="页面-3" stroke="none" stroke-width="1" fill="none" fill-rule="evenodd">
        <g id="任务中心" transform="translate(-152.000000, -1182.000000)">
            <g id="兑换特权" transform="translate(152.000000, 1182.000000)">
                <g id="路径-20-+-路径-20备份-蒙版备份" transform="translate(4.000000, 0.000000)">
                    <mask id="mask-2" fill="white">
                        <use xlink:href="#path-1"></use>
                    </mask>
                    <path stroke="#000000" stroke-width="2" d="M32,1.04769091 L63,10.7351909 L63,52 C63,54.828928 60.3280747,58.0322002 55.4,61.7282562 C50.1776103,65.6450485 42.3761807,70.0307489 32.0002365,74.8948032 C21.6249788,69.9997633 13.8228771,65.5984004 8.6,61.6812426 C3.67374308,57.9865499 1,54.7991395 1,52 L1,52 L1,10.7351909 L32,1.04769091 Z"></path>
                    <polygon id="路径-20" fill="#6DE7FF" mask="url(#mask-2)" points="-4 7.42587875 52 37.5 67.6062082 -3.04396544 3 -3.04396544"></polygon>
                    <polygon id="路径-20备份" fill="#75F4FF" mask="url(#mask-2)" transform="translate(31.803104, 36.228017) scale(-1, -1) translate(-31.803104, -36.228017) " points="-4 26.4258787 52 56.5 67.6062082 15.9560346 3 15.9560346"></polygon>
                    <mask id="mask-4" fill="white">
                        <use xlink:href="#path-3"></use>
                    </mask>
                    <path stroke="#000000" stroke-width="2" d="M32,1.04769091 L63,10.7351909 L63,52 C63,54.828928 60.3280747,58.0322002 55.4,61.7282562 C50.1776103,65.6450485 42.3761807,70.0307489 32.0002365,74.8948032 C21.6249788,69.9997633 13.8228771,65.5984004 8.6,61.6812426 C3.67374308,57.9865499 1,54.7991395 1,52 L1,52 L1,10.7351909 L32,1.04769091 Z"></path>
                </g>
                <path d="M72.2338096,53 L66.8338096,62 L72.2338096,71 L1.76619038,71 L7.16619038,62 L1.76619038,53 L72.2338096,53 Z" id="矩形备份-7" stroke="#000000" stroke-width="2" fill="#34D3F3"></path>
                <text font-family="YouSheBiaoTiHei" font-size="12" font-weight="normal" fill="#000000">
                    <tspan x="15" y="66">兑换特权</tspan>
                </text>
                <polygon id="路径-15" stroke="#000000" fill="#FFFFFF" points="21.817451 45.9029722 49.1580635 45.9029722 51.8717133 24.7485338 44.6336882 29.4082601 35.4900993 17.9029722 26.8105633 29.4082601 19.0734075 24.7485338"></polygon>
                <path d="M35,32 L35,36 L41,36 L41,40 L31,40 L31,32 L35,32 Z" id="形状结合" stroke="#000000" fill="#FFEB38" transform="translate(36.000000, 36.000000) rotate(-45.000000) translate(-36.000000, -36.000000) "></path>
                <path d="M51.2302175,29.483263 C51.2302175,26.9211677 52.3069566,25.1431243 54.4604349,24.1491327 C52.3069566,23.3188393 51.2302175,21.7635494 51.2302175,19.483263 C51.2302175,21.8448364 50.1534783,23.4001263 48,24.1491327 C50.1534783,25.142779 51.2302175,26.9208224 51.2302175,29.483263 Z" id="椭圆形" stroke="#000000" fill="#FF608A"></path>
            </g>
        </g>
    </g>
</svg>