<?xml version="1.0" encoding="UTF-8"?>
<svg width="86px" height="72px" viewBox="0 0 86 72" version="1.1" xmlns="http://www.w3.org/2000/svg" xmlns:xlink="http://www.w3.org/1999/xlink">
    <title>编组 4</title>
    <defs>
        <linearGradient x1="93.834529%" y1="52.7614439%" x2="9.29043532%" y2="47.4304986%" id="linearGradient-1">
            <stop stop-color="#4DB8FF" offset="0%"></stop>
            <stop stop-color="#C183F2" offset="100%"></stop>
        </linearGradient>
        <path d="M1.42857143,6.41584158 L78.5714286,6.41584158 C79.3604068,6.41584158 80,7.0554348 80,7.84441301 L80,24.9476662 C80,25.7366444 79.3604068,26.3762376 78.5714286,26.3762376 L1.42857143,26.3762376 C0.639593215,26.3762376 -1.23564567e-15,25.7366444 0,24.9476662 L0,7.84441301 C-9.66219644e-17,7.0554348 0.639593215,6.41584158 1.42857143,6.41584158 Z" id="path-2"></path>
        <linearGradient x1="100%" y1="8.72467346%" x2="100%" y2="100%" id="linearGradient-3">
            <stop stop-color="#4DB8FF" offset="0%"></stop>
            <stop stop-color="#C183F2" offset="100%"></stop>
        </linearGradient>
        <linearGradient x1="57.6403903%" y1="94.3586064%" x2="42.9042933%" y2="8.72467346%" id="linearGradient-4">
            <stop stop-color="#4DB8FF" offset="0%"></stop>
            <stop stop-color="#C183F2" offset="100%"></stop>
        </linearGradient>
    </defs>
    <g id="页面-3" stroke="none" stroke-width="1" fill="none" fill-rule="evenodd">
        <g id="任务中心" transform="translate(-262.000000, -117.000000)">
            <g id="编组-4" transform="translate(262.000000, 117.000000)">
                <g id="编组-14">
                    <path d="M78.5714286,6.77298444 C78.8672954,6.77298444 79.1351525,6.89290817 79.329043,7.0867986 C79.5229334,7.28068904 79.6428571,7.54854618 79.6428571,7.84441301 L79.6428571,7.84441301 L79.6428571,70.5714286 C79.6428571,70.8672954 79.5229334,71.1351525 79.329043,71.329043 C79.1351525,71.5229334 78.8672954,71.6428571 78.5714286,71.6428571 L78.5714286,71.6428571 L1.42857143,71.6428571 C1.1327046,71.6428571 0.864847455,71.5229334 0.67095702,71.329043 C0.477066585,71.1351525 0.357142857,70.8672954 0.357142857,70.5714286 L0.357142857,70.5714286 L0.357142857,7.84441301 C0.357142857,7.54854618 0.477066585,7.28068904 0.67095702,7.0867986 C0.864847455,6.89290817 1.1327046,6.77298444 1.42857143,6.77298444 L1.42857143,6.77298444 Z" id="矩形" stroke-opacity="0.357572115" stroke="#B6BBC9" stroke-width="0.714285714" fill="#FFFFFF"></path>
                    <g id="矩形备份-35">
                        <use fill="url(#linearGradient-1)" xlink:href="#path-2"></use>
                        <use fill="#222222" xlink:href="#path-2"></use>
                    </g>
                    <ellipse id="椭圆形" fill="#F2F3F9" cx="23.5714286" cy="14.970297" rx="4.28571429" ry="4.27722772"></ellipse>
                    <ellipse id="椭圆形备份-12" fill="#F2F3F9" cx="56.4285714" cy="14.970297" rx="4.28571429" ry="4.27722772"></ellipse>
                    <path d="M21.4285714,0 L25.7142857,0 C26.5032639,3.33775872e-16 27.1428571,0.639593215 27.1428571,1.42857143 L27.1428571,15.6803395 C27.1428571,16.4693177 26.5032639,17.1089109 25.7142857,17.1089109 L21.4285714,17.1089109 C20.6395932,17.1089109 20,16.4693177 20,15.6803395 L20,1.42857143 C20,0.639593215 20.6395932,-5.21200868e-16 21.4285714,0 Z" id="矩形" fill="url(#linearGradient-3)"></path>
                    <path d="M54.2857143,0 L58.5714286,0 C59.3604068,3.33775872e-16 60,0.639593215 60,1.42857143 L60,15.6803395 C60,16.4693177 59.3604068,17.1089109 58.5714286,17.1089109 L54.2857143,17.1089109 C53.4967361,17.1089109 52.8571429,16.4693177 52.8571429,15.6803395 L52.8571429,1.42857143 C52.8571429,0.639593215 53.4967361,-5.21200868e-16 54.2857143,0 Z" id="矩形备份-36" fill="url(#linearGradient-4)"></path>
                </g>
                <path d="M76,32 C76,26.1666667 79.2854037,22 86,22 C79.4556498,22 76,19.7234145 76,12 C76,19.177955 72.5886842,22 66,22 C72.2269112,22 76,26.1666667 76,32 Z" id="椭圆形" fill="#65F2FF"></path>
            </g>
        </g>
    </g>
</svg>