<?xml version="1.0" encoding="UTF-8"?>
<svg width="32px" height="32px" viewBox="0 0 32 32" version="1.1" xmlns="http://www.w3.org/2000/svg" xmlns:xlink="http://www.w3.org/1999/xlink">
    <title>icon_Luyin_32x32</title>
    <g id="页面-3" stroke="none" stroke-width="1" fill="none" fill-rule="evenodd">
        <g id="盲盒-放消息-语音" transform="translate(-172.000000, -308.000000)">
            <g id="icon_Luyin_32x32" transform="translate(172.000000, 308.000000)">
                <rect id="矩形" fill-opacity="0" fill="#D8D8D8" x="0" y="0" width="32" height="32"></rect>
                <path d="M8.33333333,12.5 L8.33333333,13.6666667 C8.33333333,18.1769921 11.9896745,21.8333333 16.5,21.8333333 C21.0103255,21.8333333 24.6666667,18.1769921 24.6666667,13.6666667 L24.6666667,12.5 L27,12.5 L27,13.6666667 C27,19.0718333 22.9166667,23.5226667 17.6666667,24.1025 L17.6666667,27.6666667 L24.6666667,27.6666667 L24.6666667,30 L8.33333333,30 L8.33333333,27.6666667 L15.3333333,27.6666667 L15.3333333,24.1025 C10.0833333,23.5215 6,19.0706667 6,13.6666667 L6,12.5 L8.33333333,12.5 Z M16.5,2 C20.3659932,2 23.5,5.13400675 23.5,9 L23.5,13.6666667 C23.5,17.5326599 20.3659932,20.6666667 16.5,20.6666667 C12.6340068,20.6666667 9.5,17.5326599 9.5,13.6666667 L9.5,9 C9.5,5.13400675 12.6340068,2 16.5,2 Z M16.5,4.33333333 C13.9226712,4.33333333 11.8333333,6.42267117 11.8333333,9 L11.8333333,13.6666667 C11.8333333,16.2439955 13.9226712,18.3333333 16.5,18.3333333 C19.0773288,18.3333333 21.1666667,16.2439955 21.1666667,13.6666667 L21.1666667,11.3333333 L13,11.3333333 L13,9 L21.1666667,9 C21.1666667,6.42267117 19.0773288,4.33333333 16.5,4.33333333 Z" id="形状" fill="#FFFFFF" fill-rule="nonzero"></path>
            </g>
        </g>
    </g>
</svg>