<?xml version="1.0" encoding="UTF-8"?>
<svg width="24px" height="24px" viewBox="0 0 24 24" version="1.1" xmlns="http://www.w3.org/2000/svg" xmlns:xlink="http://www.w3.org/1999/xlink">
    <title>icon-社区</title>
    <g id="页面-3" stroke="none" stroke-width="1" fill="none" fill-rule="evenodd">
        <g id="切图" transform="translate(-52.000000, -179.000000)">
            <g id="icon-社区" transform="translate(52.000000, 179.000000)">
                <rect id="矩形" fill-opacity="0" fill="#D8D8D8" x="0" y="0" width="24" height="24"></rect>
                <path d="M19.75,4.25 L19.75,12.5 C19.75,14.7781746 18.8265873,16.8406746 17.3336309,18.3336309 C15.8406746,19.8265873 13.7781746,20.75 11.5,20.75 C9.22182541,20.75 7.15932541,19.8265873 5.66636906,18.3336309 C4.1734127,16.8406746 3.25,14.7781746 3.25,12.5 C3.25,10.2218254 4.1734127,8.15932541 5.66636906,6.66636906 C7.15932541,5.1734127 9.22182541,4.25 11.5,4.25 L11.5,4.25 L19.75,4.25 Z" id="椭圆形" stroke="#999999" stroke-width="2.5"></path>
                <circle id="椭圆形备份-2" stroke="#8856EE" stroke-width="2.5" cx="11.5" cy="12.5" r="3.25"></circle>
                <path d="M11.5,8 C13.9852814,8 16,10.0147186 16,12.5 C16,14.9852814 13.9852814,17 11.5,17 C9.01471863,17 7,14.9852814 7,12.5 C7,10.0147186 9.01471863,8 11.5,8 Z M11.5,10.5 C10.3954305,10.5 9.5,11.3954305 9.5,12.5 C9.5,13.6045695 10.3954305,14.5 11.5,14.5 C12.6045695,14.5 13.5,13.6045695 13.5,12.5 C13.5,11.3954305 12.6045695,10.5 11.5,10.5 Z" id="形状结合" fill="#999999"></path>
            </g>
        </g>
    </g>
</svg>