<?xml version="1.0" encoding="UTF-8"?>
<svg width="24px" height="24px" viewBox="0 0 24 24" version="1.1" xmlns="http://www.w3.org/2000/svg" xmlns:xlink="http://www.w3.org/1999/xlink">
    <title> FAQ icon</title>
    <defs>
        <linearGradient x1="84.7895066%" y1="85.8506944%" x2="14.2647592%" y2="24.5985243%" id="linearGradient-1">
            <stop stop-color="#A991F6" offset="0%"></stop>
            <stop stop-color="#75C1FD" offset="100%"></stop>
        </linearGradient>
        <linearGradient x1="90.7133557%" y1="85.8506944%" x2="8.17987351%" y2="24.5985243%" id="linearGradient-2">
            <stop stop-color="#A991F6" offset="0%"></stop>
            <stop stop-color="#75C1FD" offset="100%"></stop>
        </linearGradient>
    </defs>
    <g id="页面-3" stroke="none" stroke-width="1" fill="none" fill-rule="evenodd">
        <g id="个人主页" transform="translate(-176.000000, -432.000000)">
            <g id="-FAQ-icon" transform="translate(176.000000, 432.000000)">
                <rect id="矩形" fill-opacity="0" fill="#D8D8D8" x="0" y="0" width="24" height="24"></rect>
                <path d="M12,23 C5.9247,23 1,18.0753 1,12 C1,5.9247 5.9247,1 12,1 C18.0753,1 23,5.9247 23,12 C23,18.0753 18.0753,23 12,23 Z M12,20.8 C14.33387,20.8 16.57226,19.87281 18.22259,18.22259 C19.87281,16.57226 20.8,14.33387 20.8,12 C20.8,9.666097 19.87281,7.427784 18.22259,5.777465 C16.57226,4.127135 14.33387,3.2 12,3.2 C9.666097,3.2 7.427784,4.127135 5.777465,5.777465 C4.127135,7.427784 3.2,9.666097 3.2,12 C3.2,14.33387 4.127135,16.57226 5.777465,18.22259 C7.427784,19.87281 9.666097,20.8 12,20.8 Z M10.9,15.3 L13.1,15.3 L13.1,17.5 L10.9,17.5 L10.9,15.3 Z M13.1,13.4905 L13.1,14.2 L10.9,14.2 L10.9,12.55 C10.9,12.25828 11.01594,11.97844 11.22219,11.77219 C11.42844,11.56594 11.70828,11.45 12,11.45 C12.31251,11.45 12.61853,11.36123 12.88253,11.19403 C13.14653,11.02694 13.35773,10.78824 13.49138,10.50576 C13.62503,10.22328 13.67574,9.90868 13.63757,9.598524 C13.5994,9.288379 13.474,8.995438 13.27578,8.753801 C13.07767,8.512164 12.81499,8.331753 12.51832,8.233567 C12.22165,8.135381 11.9032,8.123457 11.60004,8.199181 C11.29688,8.274894 11.02144,8.435153 10.80584,8.661302 C10.59013,8.88744 10.44317,9.170173 10.3819,9.4766 L8.2237,9.0443 C8.357493,8.375588 8.666461,7.754407 9.119012,7.244249 C9.571563,6.73408 10.15145,6.353238 10.79946,6.140652 C11.44747,5.928066 12.14025,5.891359 12.80707,6.034271 C13.47389,6.177194 14.09077,6.494621 14.59468,6.954102 C15.09859,7.413594 15.47149,7.998651 15.67521,8.649466 C15.87893,9.300292 15.90621,9.99349 15.75419,10.65833 C15.60217,11.32317 15.27635,11.93565 14.80995,12.43329 C14.34366,12.93082 13.75351,13.29569 13.1,13.4905 Z" id="形状" fill="#333030" fill-rule="nonzero"></path>
                <path d="M13.1,13.4905 L13.1,14.2 L10.9,14.2 L10.9,12.55 C10.9,12.25828 11.01594,11.97844 11.22219,11.77219 C11.42844,11.56594 11.70828,11.45 12,11.45 C12.31251,11.45 12.61853,11.36123 12.88253,11.19403 C13.14653,11.02694 13.35773,10.78824 13.49138,10.50576 C13.62503,10.22328 13.67574,9.90868 13.63757,9.598524 C13.5994,9.288379 13.474,8.995438 13.27578,8.753801 C13.07767,8.512164 12.81499,8.331753 12.51832,8.233567 C12.22165,8.135381 11.9032,8.123457 11.60004,8.199181 C11.29688,8.274894 11.02144,8.435153 10.80584,8.661302 C10.59013,8.88744 10.44317,9.170173 10.3819,9.4766 L8.2237,9.0443 C8.357493,8.375588 8.666461,7.754407 9.119012,7.244249 C9.571563,6.73408 10.15145,6.353238 10.79946,6.140652 C11.44747,5.928066 12.14025,5.891359 12.80707,6.034271 C13.47389,6.177194 14.09077,6.494621 14.59468,6.954102 C15.09859,7.413594 15.47149,7.998651 15.67521,8.649466 C15.87893,9.300292 15.90621,9.99349 15.75419,10.65833 C15.60217,11.32317 15.27635,11.93565 14.80995,12.43329 C14.34366,12.93082 13.75351,13.29569 13.1,13.4905 Z" id="路径" fill="url(#linearGradient-1)"></path>
                <polygon id="路径" fill="url(#linearGradient-2)" points="10.9 15.3 13.1 15.3 13.1 17.5 10.9 17.5"></polygon>
            </g>
        </g>
    </g>
</svg>