<?xml version="1.0" encoding="UTF-8"?>
<svg width="24px" height="24px" viewBox="0 0 24 24" version="1.1" xmlns="http://www.w3.org/2000/svg" xmlns:xlink="http://www.w3.org/1999/xlink">
    <title>金币icon</title>
    <defs>
        <linearGradient x1="73.4728244%" y1="85.8506944%" x2="25.8890794%" y2="24.5985243%" id="linearGradient-1">
            <stop stop-color="#A991F6" offset="0%"></stop>
            <stop stop-color="#75C1FD" offset="100%"></stop>
        </linearGradient>
    </defs>
    <g id="页面-3" stroke="none" stroke-width="1" fill="none" fill-rule="evenodd">
        <g id="个人主页" transform="translate(-176.000000, -332.000000)">
            <g id="金币icon" transform="translate(176.000000, 332.000000)">
                <rect id="矩形" fill-opacity="0" fill="#D8D8D8" x="0" y="0" width="24" height="24"></rect>
                <path d="M3,3 L21,3 C21.2652,3 21.5196,3.10536 21.7071,3.29289 C21.8946,3.48043 22,3.73478 22,4 L22,20 C22,20.2652 21.8946,20.5196 21.7071,20.7071 C21.5196,20.8946 21.2652,21 21,21 L3,21 C2.73478,21 2.48043,20.8946 2.29289,20.7071 C2.10536,20.5196 2,20.2652 2,20 L2,4 C2,3.73478 2.10536,3.48043 2.29289,3.29289 C2.48043,3.10536 2.73478,3 3,3 Z M4,5 L4,19 L20,19 L20,5 L4,5 Z M13,13 L16,13 L16,15 L13,15 L13,17 L11,17 L11,15 L8,15 L8,13 L11,13 L11,12 L8,12 L8,10 L10.586,10 L8.464,7.879 L9.88,6.464 L12,8.586 L14.121,6.464 L15.536,7.879 L13.414,10 L16,10 L16,12 L13,12 L13,13 Z" id="形状" fill="#222222" fill-rule="nonzero"></path>
                <polygon id="路径" fill="url(#linearGradient-1)" points="13 13 16 13 16 15 13 15 13 17 11 17 11 15 8 15 8 13 11 13 11 12 8 12 8 10 10.586 10 8.464 7.879 9.88 6.464 12 8.586 14.121 6.464 15.536 7.879 13.414 10 16 10 16 12 13 12"></polygon>
            </g>
        </g>
    </g>
</svg>