<?xml version="1.0" encoding="UTF-8"?>
<svg width="125px" height="27px" viewBox="0 0 125 27" version="1.1" xmlns="http://www.w3.org/2000/svg" xmlns:xlink="http://www.w3.org/1999/xlink">
    <title>highker-logo</title>
    <g id="页面-3" stroke="none" stroke-width="1" fill="none" fill-rule="evenodd">
        <g id="微信登录" transform="translate(-129.000000, -288.000000)" fill="#000000" fill-rule="nonzero">
            <g id="HighKer" transform="translate(129.389474, 288.880000)">
                <polygon id="路径" points="8.30596491 1.79087719 7.41052632 8.58385965 14.2961404 8.58385965 15.1298246 2.96421053 14.234386 1.79087719 21.0582456 1.79087719 18.6807018 19.2673684 12.7522807 19.2673684 13.925614 11.5480702 7.00912281 11.5480702 5.92842105 19.2673684 0 19.2673684 2.37754386 2.6554386 1.17333333 1.79087719"></polygon>
                <path d="M29.9752049,5.34175439 L24.3246786,5.34175439 L24.6334505,1.79087719 L30.5618715,1.79087719 L29.9752049,5.34175439 Z M29.9752049,6.23719298 L28.1843277,19.2673684 L22.2559066,19.2673684 L24.0467838,7.10175439 L23.1513452,6.23719298 L29.9752049,6.23719298 Z" id="形状"></path>
                <path d="M41.3932168,22.7873684 L41.9798834,19.2673684 L32.5005852,19.2673684 L34.2605852,6.23719298 L49.6991817,6.23719298 L47.3216378,23.682807 C47.2392986,24.2797661 46.9716963,24.7738012 46.5188308,25.1649123 C46.0659653,25.5560234 45.541053,25.7515789 44.9440939,25.7515789 L31.6051466,25.7515789 L32.1918132,21.6140351 L33.3960238,22.7873684 L41.3932168,22.7873684 Z M39.9111115,9.20140351 L38.7995325,16.2722807 L42.2886553,16.2722807 L43.4619887,9.20140351 L39.9111115,9.20140351 Z" id="形状"></path>
                <polygon id="路径" points="59.3263164 0 58.461755 6.23719298 67.9410532 6.23719298 66.150176 19.2673684 60.221755 19.2673684 61.7038602 9.20140351 58.152983 9.20140351 56.6708778 19.2673684 50.7424567 19.2673684 53.3978953 0.895438596 52.8112286 0"></polygon>
                <polygon id="路径" points="77.4446791 1.79087719 76.5492405 7.10175439 82.7864335 1.79087719 89.579416 1.79087719 79.5134511 10.6835088 88.4060826 19.2673684 81.3043282 19.2673684 75.6538019 13.3389474 74.7583633 19.2673684 69.1387142 19.2673684 71.2074861 2.96421053 70.3120475 1.79087719"></polygon>
                <path d="M105.493568,13.925614 L96.01427,13.925614 L95.705498,16.3031579 L104.011463,16.3031579 L105.493568,15.1298246 L104.59813,19.2673684 L91.5679542,19.2673684 C90.9709951,19.2673684 90.5232758,19.0718129 90.2247963,18.6807018 C89.9263167,18.2895906 89.777077,17.7955556 89.777077,17.1985965 L91.2591822,6.23719298 L106.666902,6.23719298 L105.493568,13.925614 Z M96.8788314,9.20140351 L96.6009366,10.9614035 L100.151814,10.9614035 L100.460586,9.20140351 L96.8788314,9.20140351 Z" id="形状"></path>
                <polygon id="路径" points="114.811931 6.23719298 114.225264 10.3747368 118.393685 6.23719298 124.322106 6.23719298 114.225264 15.1298246 113.638598 19.2673684 107.710177 19.2673684 109.439299 7.10175439 108.821756 6.23719298"></polygon>
            </g>
        </g>
    </g>
</svg>