<?xml version="1.0" encoding="UTF-8"?>
<svg width="28px" height="28px" viewBox="0 0 28 28" version="1.1" xmlns="http://www.w3.org/2000/svg" xmlns:xlink="http://www.w3.org/1999/xlink">
    <title>icon_Shangchuan_28x28</title>
    <g id="页面-3" stroke="none" stroke-width="1" fill="none" fill-rule="evenodd">
        <g id="完善信息" transform="translate(-210.000000, -200.000000)" fill-rule="nonzero">
            <g id="icon_ShouQi_24x24" transform="translate(210.000000, 200.000000)">
                <circle id="椭圆形" fill="#000000" opacity="0.8" cx="14" cy="14" r="14"></circle>
                <path d="M15.663,7.58333333 L17.15,9.41675648 L19.687,9.41675648 C20.1654043,9.42925505 20.603071,9.42925505 21,9.41675648 L21,19.0422017 C20.9877204,19.5431104 20.9877204,20.0012654 21,20.4166667 L7,20.4166667 C7.01226416,20.0010023 7.01226416,19.5428473 7,19.0422017 L7,9.41675648 C7.39652268,9.42962071 7.83385601,9.42962071 8.312,9.41675648 L10.85,9.41675648 L12.338,7.58333333 L15.663,7.58333333 Z M14,10.3333707 C12.1309749,10.3413241 10.5270946,11.7301532 10.1679187,13.6516846 C9.80874283,15.573216 10.7941307,17.4932187 12.522263,18.2390632 C14.2503953,18.9849078 16.2408106,18.349232 17.2778754,16.7202707 C18.3149402,15.0913094 18.1103262,12.9219522 16.789,11.5371201 C16.0501189,10.7617369 15.045818,10.3282907 14,10.3333707 Z M14,11.7089282 C15.4497475,11.7089282 16.625,12.9401351 16.625,14.4589058 C16.625,15.9776764 15.4497475,17.2088833 14,17.2088833 C12.5502525,17.2088833 11.375,15.9776764 11.375,14.4589058 C11.375,12.9401351 12.5502525,11.7089282 14,11.7089282 Z" id="形状结合" fill="#FFFFFF"></path>
            </g>
        </g>
    </g>
</svg>