<?xml version="1.0" encoding="UTF-8"?>
<svg width="30px" height="30px" viewBox="0 0 30 30" version="1.1" xmlns="http://www.w3.org/2000/svg" xmlns:xlink="http://www.w3.org/1999/xlink">
    <title>icon_wechat</title>
    <g id="页面-3" stroke="none" stroke-width="1" fill="none" fill-rule="evenodd">
        <g id="微信登录" transform="translate(-130.000000, -585.000000)">
            <g id="微信-(1)" transform="translate(130.000000, 585.000000)">
                <rect id="矩形" fill-opacity="0" fill="#D8D8D8" x="0" y="0" width="30" height="30"></rect>
                <path d="M20.7371285,10.4692647 C21.0372714,10.4692647 21.3342704,10.4913023 21.6288141,10.5241491 C20.8275247,6.79308262 16.8387437,4.0210123 12.2856077,4.0210123 C7.19539428,4.0210123 3.02564119,7.4906814 3.02564119,11.8965006 C3.02564119,14.4396311 4.41290398,16.5281157 6.731077,18.1478516 L5.80489771,20.9335756 L9.04203389,19.3101868 C10.2003269,19.5394859 11.12974,19.7752526 12.2856077,19.7752526 C12.576199,19.7752526 12.864365,19.7608503 13.1501655,19.7384534 C12.9691934,19.1192439 12.8643649,18.4708705 12.8643649,17.7980641 C12.8643649,13.7524822 16.3384655,10.4692647 20.7371285,10.4692647 Z M15.7581213,7.95859181 C16.4553308,7.95859181 16.9172527,8.41724997 16.9172527,9.11407024 C16.9172527,9.80810585 16.4553308,10.2732017 15.7581213,10.2732017 C15.0640856,10.2732017 14.3676546,9.80810588 14.3676546,9.11407024 C14.3676846,8.4172799 15.0641156,7.95859181 15.7581213,7.95859181 Z M9.27744125,10.2732016 C8.58340564,10.2732016 7.88296233,9.80810585 7.88296233,9.11407021 C7.88296233,8.41727987 8.58340564,7.95859178 9.27744125,7.95859178 C9.97144692,7.95859178 10.4333389,8.41724994 10.4333389,9.11407021 C10.4333389,9.80810585 9.97147689,10.2732016 9.27744125,10.2732016 Z" id="形状" fill="#FFFFFF" fill-rule="nonzero"></path>
                <path d="M29.1885894,17.6868279 C29.1885894,13.984596 25.4839321,10.966848 21.3230719,10.966848 C16.9172527,10.966848 13.4471344,13.984626 13.4471344,17.6868279 C13.4471344,21.3954975 16.9172527,24.4068977 21.3230719,24.4068977 C22.2452089,24.4068977 23.1753706,24.1743348 24.1015199,23.9422211 L26.6414466,25.333047 L25.9450455,23.0188264 C27.8037519,21.6243775 29.1885894,19.7753125 29.1885894,17.6868279 Z M18.7695514,16.5281457 C18.3084679,16.5281457 17.8433721,16.0694875 17.8433721,15.6016071 C17.8433721,15.1401044 18.308438,14.6754278 18.7695514,14.6754278 C19.4699947,14.6754278 19.9286528,15.1401044 19.9286528,15.6016071 C19.9286229,16.0694875 19.4699647,16.5281457 18.7695514,16.5281457 Z M23.8629686,16.5281457 C23.4051189,16.5281457 22.9432269,16.0694875 22.9432269,15.6016071 C22.9432269,15.1401044 23.4051189,14.6754278 23.8629686,14.6754278 C24.5570342,14.6754278 25.02207,15.1401044 25.02207,15.6016071 C25.02207,16.0694875 24.5570342,16.5281457 23.8629686,16.5281457 Z" id="形状" fill="#FFFFFF" fill-rule="nonzero"></path>
            </g>
        </g>
    </g>
</svg>