<?xml version="1.0" encoding="UTF-8"?>
<svg width="12px" height="12px" viewBox="0 0 12 12" version="1.1" xmlns="http://www.w3.org/2000/svg" xmlns:xlink="http://www.w3.org/1999/xlink">
    <title>icon_Male_12x12</title>
    <g id="页面-3" stroke="none" stroke-width="1" fill="none" fill-rule="evenodd">
        <g id="社区-关注" transform="translate(-54.000000, -138.000000)">
            <g id="编组" transform="translate(16.000000, 100.000000)">
                <g id="用户信息/众评圈子" transform="translate(16.000000, 16.000000)">
                    <g id="icon_Male_12x12" transform="translate(22.000000, 22.000000)">
                        <circle id="椭圆形" fill="#00AAFF" cx="6" cy="6" r="6"></circle>
                        <path d="M5.48934708,4.87263773 C4.55738832,4.87263773 3.8,5.62100561 3.8,6.54186233 C3.8,7.46203184 4.5580756,8.21039972 5.48934708,8.21039972 C6.42061856,8.21039972 7.17938144,7.46134463 7.17938144,6.54186233 C7.17869416,5.62100561 6.42061855,4.87263773 5.48934708,4.87263773 L5.48934708,4.87263773 Z M9,5.29595693 L8.2,5.29595693 L8.2,4.39983966 L7.4975945,5.09391823 C7.79862543,5.50005727 7.97869416,5.9996564 7.97869416,6.54117513 C7.97869416,7.89703356 6.86254296,9 5.48934708,9 C4.11683849,9 3,7.89703356 3,6.54117513 C3,5.1853167 4.11683848,4.08166305 5.48934708,4.08166305 C6.02611684,4.08166305 6.52164948,4.25209026 6.92852234,4.53796817 L7.68522337,3.79028749 L6.66666667,3.79028748 L6.66666667,3 L9,3 L9,5.29595693 L9,5.29595693 L9,5.29595693 Z" id="形状" fill="#FFFFFF" fill-rule="nonzero"></path>
                    </g>
                </g>
            </g>
        </g>
    </g>
</svg>