<?xml version="1.0" encoding="UTF-8"?>
<svg width="12px" height="12px" viewBox="0 0 12 12" version="1.1" xmlns="http://www.w3.org/2000/svg" xmlns:xlink="http://www.w3.org/1999/xlink">
    <title>icon_Famale_12x12</title>
    <g id="页面-3" stroke="none" stroke-width="1" fill="none" fill-rule="evenodd">
        <g id="社区-关注" transform="translate(-54.000000, -417.000000)">
            <g id="编组备份" transform="translate(16.000000, 379.000000)">
                <g id="用户信息/众评圈子" transform="translate(16.000000, 16.000000)">
                    <g id="icon_Famale_12x12" transform="translate(22.000000, 22.000000)">
                        <circle id="椭圆形" fill="#FF5575" cx="6" cy="6" r="6"></circle>
                        <path d="M8.65,7.75 L8.65,8.65 L6.45,8.65 L6.45,9.5 L5.55,9.5 L5.55,8.6 L3.4,8.6 L3.4,7.7 L8.65,7.7 L8.65,7.75 Z M3.4,5.15 C3.4,3.7 4.55,2.5 6,2.5 C7.45,2.5 8.65,3.7 8.65,5.15 C8.65,6.6 7.45,7.8 6,7.8 C4.55,7.8 3.4,6.55 3.4,5.15 Z M6,6.9 C6.95,6.9 7.75,6.1 7.75,5.15 C7.75,4.2 6.95,3.4 6,3.4 C5.05,3.4 4.25,4.15 4.25,5.15 C4.25,6.15 5.05,6.9 6,6.9 Z" id="形状" fill="#FFFFFF" fill-rule="nonzero"></path>
                    </g>
                </g>
            </g>
        </g>
    </g>
</svg>