<?xml version="1.0" encoding="UTF-8"?>
<svg width="24px" height="24px" viewBox="0 0 24 24" version="1.1" xmlns="http://www.w3.org/2000/svg" xmlns:xlink="http://www.w3.org/1999/xlink">
    <title>icon_Biaoqing_24x24</title>
    <g id="页面-3" stroke="none" stroke-width="1" fill="none" fill-rule="evenodd">
        <g id="写评论-未输入" transform="translate(-28.000000, -407.000000)">
            <g id="icon_Biaoqing_24x24" transform="translate(28.000000, 407.000000)">
                <rect id="矩形" fill-opacity="0" fill="#D8D8D8" x="0" y="0" width="24" height="24"></rect>
                <path d="M11.9995452,3.76470587 C9.05735801,3.76470587 6.33866486,5.33434401 4.86757123,7.8823529 C3.3964776,10.4303618 3.3964776,13.5696382 4.86757123,16.1176471 C6.33866486,18.665656 9.05735801,20.2352941 11.9995452,20.2352941 C16.5477726,20.2352941 20.2348394,16.5482273 20.2348394,12 C20.2348394,7.45177264 16.5477726,3.76470587 11.9995452,3.76470587 L11.9995452,3.76470587 Z M11.9995452,2 C15.5723095,2 18.8737492,3.90579122 20.6601782,6.99986871 C22.4466073,10.0939462 22.4466073,13.9060538 20.6601782,17.0001313 C18.8737492,20.0942088 15.5723095,22 11.9995452,22 C6.47687534,21.9997488 2,17.5226699 2,12 C2,6.47733008 6.47687534,2.00025115 11.9995452,2 Z M7.4618982,9.14235293 C7.4618982,8.35356036 8.10134092,7.71411763 8.89013349,7.71411763 C9.67892606,7.71411763 10.3183688,8.35356036 10.3183688,9.14235293 C10.3183688,9.93114548 9.67892604,10.5705882 8.89013349,10.5705882 C8.10134094,10.5705882 7.4618982,9.93114548 7.4618982,9.14235293 L7.4618982,9.14235293 Z M13.6795452,9.14235293 C13.6795452,8.35323548 14.3192513,7.7135294 15.1083688,7.7135294 C15.8974862,7.7135294 16.5371923,8.35323548 16.5371923,9.14235293 C16.5371923,9.93147037 15.8974862,10.5711765 15.1083688,10.5711765 C14.3192513,10.5711765 13.6795452,9.93147037 13.6795452,9.14235293 Z M7.1218982,12.5882353 L16.9501335,12.5882353 C16.9501335,14.8388235 14.8807217,17.5411765 11.9795452,17.5411765 C9.07954525,17.5411765 7.1218982,14.8388235 7.1218982,12.5882353 Z" id="形状" fill="#333333" fill-rule="nonzero"></path>
            </g>
        </g>
    </g>
</svg>