<?xml version="1.0" encoding="UTF-8"?>
<svg width="24px" height="24px" viewBox="0 0 24 24" version="1.1" xmlns="http://www.w3.org/2000/svg" xmlns:xlink="http://www.w3.org/1999/xlink">
    <title>icon_Jianpan_24x24</title>
    <g id="页面-3" stroke="none" stroke-width="1" fill="none" fill-rule="evenodd">
        <g id="写评论-已输入" transform="translate(-28.000000, -407.000000)">
            <g id="icon_Jianpan_24x24" transform="translate(28.000000, 407.000000)">
                <rect id="矩形" fill-opacity="0" fill="#D8D8D8" x="0" y="0" width="24" height="24"></rect>
                <path d="M21.9,3.34652149 L21.9,20.093018 L1.9,20.093018 L1.9,3.34652149 L21.9,3.34652149 Z M19.9,5.28769795 L3.76425101,5.28769795 L3.76425101,18.093018 L19.9,18.093018 L19.9,5.28769795 Z M18.5666667,13.0392157 L18.5666667,15.0392157 L9.9,15.0392157 L9.9,13.0392157 L18.5666667,13.0392157 Z M8.56666667,13.0392157 L8.56666667,15.0392157 L5.23333333,15.0392157 L5.23333333,13.0392157 L8.56666667,13.0392157 Z M8.56666667,8.37254901 L8.56666667,10.372549 L5.23333333,10.372549 L5.23333333,8.37254901 L8.56666667,8.37254901 Z M13.2333333,8.37254901 L13.2333333,10.372549 L9.9,10.372549 L9.9,8.37254901 L13.2333333,8.37254901 Z M18.5666667,8.37254901 L18.5666667,10.372549 L14.5666667,10.372549 L14.5666667,8.37254901 L18.5666667,8.37254901 Z" id="形状结合" fill="#222222" fill-rule="nonzero"></path>
            </g>
        </g>
    </g>
</svg>