<?xml version="1.0" encoding="UTF-8"?>
<svg width="24px" height="24px" viewBox="0 0 24 24" version="1.1" xmlns="http://www.w3.org/2000/svg" xmlns:xlink="http://www.w3.org/1999/xlink">
    <title>icon_Tu_24x24</title>
    <g id="页面-3" stroke="none" stroke-width="1" fill="none" fill-rule="evenodd">
        <g id="写评论-已输入" transform="translate(-76.000000, -407.000000)">
            <g id="icon_Tu_24x24" transform="translate(76.000000, 407.000000)">
                <rect id="矩形" fill-opacity="0" fill="#D8D8D8" x="0" y="0" width="24" height="24"></rect>
                <path d="M3,21 L3,3 L21,3 L21,21 L3,21 Z M4.8,17.4 L4.8,19.2 L19.2,19.2 L19.2,15.9816 L15.06,11.5671 L4.8,17.4 Z M4.8,15.33 L15.4074,9.3 L19.2,13.35 L19.2,4.8 L4.8,4.8 L4.8,15.33 Z M6.71969898,8.0553 C6.71969898,7.17153395 7.43613393,6.4551 8.31989999,6.4551 C8.74429942,6.4551 9.15131656,6.62369201 9.45141227,6.92378772 C9.75150799,7.22388344 9.92010026,7.63090057 9.92010026,8.0553 C9.92033879,8.47985534 9.75185219,8.88710373 9.45173059,9.18739412 C9.15160898,9.48768451 8.7444554,9.65639999 8.31989999,9.65639999 C7.89510578,9.65616147 7.487818,9.48712218 7.18769639,9.18649418 C6.88757478,8.88586618 6.71922236,8.47829401 6.71969898,8.0535 L6.71969898,8.0553 Z" id="形状" fill="#000000" fill-rule="nonzero"></path>
            </g>
        </g>
    </g>
</svg>