<?xml version="1.0" encoding="UTF-8"?>
<svg width="16px" height="17px" viewBox="0 0 16 17" version="1.1" xmlns="http://www.w3.org/2000/svg" xmlns:xlink="http://www.w3.org/1999/xlink">
    <title>会员 备份</title>
    <defs>
        <linearGradient x1="21.7254526%" y1="23.164023%" x2="84.9201529%" y2="60.5110685%" id="linearGradient-1">
            <stop stop-color="#FAD961" offset="0%"></stop>
            <stop stop-color="#F76B1C" offset="100%"></stop>
        </linearGradient>
    </defs>
    <g id="页面-3" stroke="none" stroke-width="1" fill="none" fill-rule="evenodd">
        <g id="社区-关注" transform="translate(-172.000000, -124.000000)">
            <g id="编组" transform="translate(16.000000, 100.000000)">
                <g id="用户信息/众评圈子" transform="translate(16.000000, 16.000000)">
                    <g id="用户信息/平台+认证+等级" transform="translate(46.000000, 7.000000)">
                        <g id="会员-备份" transform="translate(94.000000, 1.881692)">
                            <rect id="矩形" fill-opacity="0" fill="#D8D8D8" x="0" y="0" width="16" height="16"></rect>
                            <polygon id="形状" fill="url(#linearGradient-1)" fill-rule="nonzero" points="11.7870739 3.12913601 3.2140724 3.12913601 0 6.42649244 7.5 14.1183078 15 6.42649244"></polygon>
                            <polygon id="形状备份-2" fill="#FFFFFF" fill-rule="nonzero" opacity="0.200000003" points="11.7870739 3.12913601 3.2140724 3.12913601 0 6.42649244 15 6.42649244"></polygon>
                            <path d="M13.1446023,7.12086604 C12.7073282,7.13537826 11.6722259,7.23309382 11.1045278,7.81490332 C10.5072076,8.4290118 10.4324178,9.57716971 10.4246904,9.97610672 C10.4260508,10.064501 10.4246904,10.1183078 10.4246904,10.1183078 C10.4246904,10.1183078 10.4237834,10.0659336 10.4246904,9.97610672 C10.4173982,9.56641579 10.3435155,8.36584646 9.73113938,7.73681646 C9.16391285,7.15547209 8.09873508,7.10681897 7.67829452,7.11199127 C7.56887621,7.1190055 7.5,7.11807523 7.5,7.11807523 C7.5,7.11807523 7.5674976,7.11338667 7.67829452,7.11199127 C8.07999683,7.08858567 9.07043929,6.97399501 9.63128067,6.39830669 C10.3777268,5.63222929 10.4247266,4.1183078 10.4247266,4.1183078 C10.4247266,4.1183078 10.3435518,5.70192513 11.074942,6.45256004 C11.6440188,7.03576494 12.7019044,7.11385181 13.1446749,7.12088465 C13.2709631,7.11574956 13.350324,7.11809384 13.350324,7.11809384 C13.350324,7.11809384 13.2709993,7.12185213 13.1446749,7.12088465 L13.1446023,7.12086604 Z" id="路径" fill="#FFFFFF" fill-rule="nonzero"></path>
                        </g>
                    </g>
                </g>
            </g>
        </g>
    </g>
</svg>